<svg width="56" height="56" viewBox="0 0 56 56" fill="none" xmlns="http://www.w3.org/2000/svg">
<g id="akar-icons:figma-fill">
<g id="Group">
<g id="Group_2">
<path id="Vector" fill-rule="evenodd" clip-rule="evenodd" d="M19.635 0C13.9253 0 9.33334 4.79033 9.33334 10.6587C9.33334 14.2263 11.032 17.395 13.643 19.3293C12.2973 20.3375 11.2066 21.647 10.4582 23.1527C9.70975 24.6584 9.32452 26.3186 9.33334 28C9.33334 31.57 11.032 34.7363 13.643 36.6707C12.2973 37.6789 11.2066 38.9883 10.4582 40.494C9.70975 41.9998 9.32452 43.6599 9.33334 45.3413C9.33334 51.2097 13.9253 56 19.635 56C25.3423 56 29.9367 51.2097 29.9367 45.3413V36.33C31.7411 37.8345 34.0156 38.6593 36.365 38.661C42.0747 38.6587 46.6667 33.8683 46.6667 28C46.676 26.3185 46.2911 24.6581 45.5426 23.1523C44.7942 21.6465 43.7031 20.3372 42.357 19.3293C43.7027 18.3211 44.7935 17.0117 45.5419 15.506C46.2903 14.0002 46.6755 12.3401 46.6667 10.6587C46.6667 4.79033 42.0747 0 36.365 0H19.635ZM13.2043 10.6587C13.2043 6.94633 16.1023 3.97367 19.635 3.97367H26.0633V17.3437H19.635C16.1023 17.3437 13.2043 14.3687 13.2043 10.6587ZM36.365 17.3413H29.9367V3.97133H36.365C39.9 3.97133 42.7957 6.94633 42.7957 10.6587C42.7957 14.3687 39.9 17.3413 36.365 17.3413ZM13.2067 28C13.2067 24.29 16.1047 21.315 19.6373 21.315H26.0657V34.685H19.635C16.1 34.685 13.2043 31.71 13.2043 28H13.2067ZM29.9367 28C29.9367 24.29 32.8347 21.315 36.3673 21.315C39.9023 21.315 42.798 24.2877 42.798 28C42.798 31.71 39.9023 34.685 36.3673 34.685C32.8347 34.685 29.939 31.7123 29.939 28H29.9367ZM13.2067 45.3413C13.2067 41.6313 16.1047 38.6587 19.6373 38.6587H26.0657V45.3413C26.0657 49.0537 23.1723 52.0263 19.6373 52.0263C16.1047 52.0263 13.2067 49.0537 13.2067 45.3413Z" fill="url(#paint0_linear_4_64)"/>
</g>
</g>
</g>
<defs>
<linearGradient id="paint0_linear_4_64" x1="28" y1="0" x2="28" y2="56" gradientUnits="userSpaceOnUse">
<stop stop-color="#43C4ED"/>
<stop offset="1" stop-color="#CA32F0"/>
</linearGradient>
</defs>
</svg>
