<svg width="56" height="56" viewBox="0 0 56 56" fill="none" xmlns="http://www.w3.org/2000/svg">
<g id="bi:git" clip-path="url(#clip0_4_42)">
<path id="Vector" d="M54.943 25.5045L30.492 1.057C30.1572 0.722054 29.7597 0.456353 29.3222 0.275073C28.8847 0.0937934 28.4158 0.000488281 27.9422 0.000488281C27.4687 0.000488281 26.9998 0.0937934 26.5623 0.275073C26.1248 0.456353 25.7273 0.722054 25.3925 1.057L20.3175 6.132L26.7575 12.572C27.517 12.3127 28.3341 12.2721 29.1156 12.4549C29.8971 12.6377 30.6114 13.0366 31.1771 13.6059C31.7427 14.1752 32.137 14.8921 32.3147 15.6747C32.4925 16.4573 32.4467 17.2742 32.1825 18.032L38.388 24.241C39.3061 23.9177 40.3069 23.9168 41.2256 24.2382C42.1443 24.5597 42.9262 25.1844 43.4425 26.0096C43.9588 26.8347 44.1786 27.811 44.066 28.7778C43.9533 29.7446 43.5147 30.6442 42.8225 31.3285C42.1217 32.0336 41.1979 32.4734 40.2089 32.573C39.2198 32.6726 38.2269 32.4257 37.3996 31.8745C36.5724 31.3233 35.9622 30.5019 35.6733 29.5508C35.3843 28.5996 35.4346 27.5777 35.8155 26.6595L30.03 20.8705V36.106C30.9094 36.5413 31.613 37.2649 32.0236 38.1561C32.4343 39.0473 32.527 40.0523 32.2865 41.0036C32.0459 41.9549 31.4866 42.795 30.7017 43.3839C29.9169 43.9728 28.9539 44.2749 27.9732 44.2399C26.9926 44.2049 26.0536 43.8348 25.3128 43.1914C24.5719 42.548 24.074 41.6702 23.9019 40.7041C23.7298 39.7381 23.894 38.7422 24.3672 37.8826C24.8403 37.023 25.5938 36.3515 26.502 35.98V20.6045C25.978 20.3898 25.5017 20.0735 25.1005 19.6738C24.6994 19.2742 24.3813 18.7991 24.1646 18.2759C23.9479 17.7527 23.8369 17.1918 23.838 16.6255C23.8391 16.0593 23.9523 15.4988 24.171 14.9765L17.8255 8.6275L1.06049 25.3925C0.725549 25.7273 0.459847 26.1248 0.278567 26.5623C0.0972877 26.9998 0.00398254 27.4687 0.00398254 27.9422C0.00398254 28.4158 0.0972877 28.8847 0.278567 29.3222C0.459847 29.7597 0.725549 30.1572 1.06049 30.492L25.5115 54.943C25.8463 55.2779 26.2438 55.5436 26.6813 55.7249C27.1188 55.9062 27.5877 55.9995 28.0612 55.9995C28.5348 55.9995 29.0037 55.9062 29.4412 55.7249C29.8787 55.5436 30.2762 55.2779 30.611 54.943L54.9465 30.6075C55.6221 29.9309 56.0016 29.0139 56.0016 28.0577C56.0016 27.1016 55.6221 26.1846 54.9465 25.508" fill="url(#paint0_linear_4_42)"/>
</g>
<defs>
<linearGradient id="paint0_linear_4_42" x1="28.0028" y1="0.000488281" x2="28.0028" y2="55.9995" gradientUnits="userSpaceOnUse">
<stop stop-color="#43C4ED"/>
<stop offset="1" stop-color="#CA32F0"/>
</linearGradient>
<clipPath id="clip0_4_42">
<rect width="56" height="56" fill="white"/>
</clipPath>
</defs>
</svg>
