<svg width="56" height="56" viewBox="0 0 56 56" fill="none" xmlns="http://www.w3.org/2000/svg">
<g id="akar-icons:sass-fill" clip-path="url(#clip0_4_68)">
<g id="Group">
<g id="Group_2">
<path id="Vector" d="M28 0C43.4 0 56 12.6 56 28C56 43.4 43.4 56 28 56C12.6 56 0 43.4 0 28C0 12.6 12.6 0 28 0ZM22.4 37.275C22.75 38.85 22.75 40.25 22.4 41.475L22.225 42C22.225 42.175 22.05 42.35 22.05 42.35C21.7 43.05 21.35 43.575 20.825 44.275C19.25 46.025 16.975 46.725 15.925 46.2C14.875 45.675 15.4 43.05 17.325 41.125C19.425 39.025 22.225 37.625 22.225 37.625L22.4 37.275ZM45.5 11.9C44.275 7 36.05 5.25 28.175 8.05C23.625 9.8 18.55 12.425 14.875 15.75C10.5 19.775 9.975 23.275 10.15 24.675C11.2 29.75 18.2 33.25 21.175 35.7C20.3 36.05 14 39.2 12.6 42.525C11.025 46.025 12.775 48.475 14 48.65C17.675 49.7 21.525 47.775 23.45 44.8C25.375 41.825 25.2 38.15 24.325 36.225C25.6863 35.8046 27.1334 35.7443 28.525 36.05C33.425 36.575 34.475 39.725 34.125 40.95C33.775 42.175 32.9 42.875 32.55 43.225C32.2 43.4 32.025 43.575 32.2 43.575C32.2 43.75 32.375 43.75 32.725 43.75C33.075 43.75 35.35 42.7 35.35 40.25C35.525 37.275 32.55 33.95 27.475 33.95C25.375 33.95 23.975 34.125 23.1 34.475C23.1 34.3 22.925 34.3 22.925 34.3C19.775 30.975 14 28.525 14.175 23.975C14.175 22.4 14.875 18.025 25.375 12.775C33.95 8.4 40.95 9.625 42.175 12.25C43.925 15.925 38.5 22.925 29.575 23.975C26.075 24.325 24.325 23.1 23.975 22.575C23.45 22.05 23.45 22.05 23.275 22.05C22.925 22.225 23.1 22.575 23.275 22.925C23.625 23.625 24.675 24.85 26.6 25.55C28.175 26.075 32.2 26.425 37.1 24.5C42.525 22.4 46.725 16.625 45.5 11.725V11.9Z" fill="url(#paint0_linear_4_68)"/>
</g>
</g>
</g>
<defs>
<linearGradient id="paint0_linear_4_68" x1="28" y1="0" x2="28" y2="56" gradientUnits="userSpaceOnUse">
<stop stop-color="#43C4ED"/>
<stop offset="1" stop-color="#CA32F0"/>
</linearGradient>
<clipPath id="clip0_4_68">
<rect width="56" height="56" fill="white"/>
</clipPath>
</defs>
</svg>
