<svg width="56" height="56" viewBox="0 0 56 56" fill="none" xmlns="http://www.w3.org/2000/svg">
<g id="file-icons:styledcomponents" clip-path="url(#clip0_4_58)">
<path id="Vector" d="M14.0429 26.8892C13.8241 29.6435 16.2438 31.6722 17.8952 31.6722C19.5488 31.595 25.9891 26.1677 25.9891 26.1677C29.0182 22.3369 29.0313 20.6335 29.0313 19.2946C28.7786 13.3837 18.0096 22.3867 14.0429 26.8892ZM40.6828 24.6013C42.1446 21.5075 40.1779 18.0713 35.9 21.0895C32.5007 23.2501 28.0998 27.6948 25.9935 29.4348C25.0166 31.408 27.493 36.8232 31.4174 33.964C36.056 30.5939 39.4434 27.425 40.6828 24.6013ZM44.664 5.88591L45.6061 0H56V10.7443L52.1908 10.7898L47.6042 26.3248C47.8896 31.8076 45.1093 31.8968 44.7542 34.4125C43.8616 40.7355 36.7906 45.9092 34.0872 45.9092C32.2841 45.8569 30.966 43.7904 30.5233 41.9896C35.607 36.3666 42.4434 31.9478 42.4434 31.9478C42.8703 28.9906 41.9321 28.0491 45.0873 25.5292L48.0982 9.6985C45.5268 8.00045 44.327 8.02681 44.664 5.88591ZM24.3764 32.1031C27.0126 37.4148 30.8215 37.5533 36.727 30.7907C36.8674 31.4159 37.021 32.0709 36.7391 33.6437C24.7257 44.3886 13.4109 54.8461 9.9668 56H0V53.3269C1.62094 51.079 14.924 40.1066 24.3764 32.1031ZM42.131 42.3876C41.5902 46.9853 37.3984 51.0086 31.7971 56H14.0451L29.0106 43.394C31.5941 49.2734 36.1828 48.4217 42.1311 42.3876H42.131ZM21.1378 31.9517L0 49.9684V38.2795L12.4392 28.1531C13.1047 31.9223 17.1812 35.2413 21.1378 31.9519V31.9517Z" fill="url(#paint0_linear_4_58)"/>
</g>
<defs>
<linearGradient id="paint0_linear_4_58" x1="28" y1="0" x2="28" y2="56" gradientUnits="userSpaceOnUse">
<stop stop-color="#43C4ED"/>
<stop offset="1" stop-color="#CA32F0"/>
</linearGradient>
<clipPath id="clip0_4_58">
<rect width="56" height="56" fill="white"/>
</clipPath>
</defs>
</svg>
