<svg width="56" height="56" viewBox="0 0 56 56" fill="none" xmlns="http://www.w3.org/2000/svg">
<g id="akar-icons:typescript-fill" clip-path="url(#clip0_4_44)">
<g id="Group">
<g id="Group_2">
<path id="Vector" d="M54.6677 2.04696e-06H1.33C0.97705 0.000620178 0.638765 0.141263 0.389408 0.391057C0.140052 0.640851 1.5093e-06 0.979382 2.05057e-06 1.33234V54.67C-0.000305326 54.8451 0.0339467 55.0184 0.100794 55.1802C0.167641 55.342 0.265768 55.489 0.389548 55.6128C0.513328 55.7366 0.660325 55.8347 0.82211 55.9015C0.983895 55.9684 1.15728 56.0026 1.33234 56.0023H54.67C54.845 56.0023 55.0182 55.9679 55.1799 55.9009C55.3415 55.834 55.4884 55.7358 55.6121 55.6121C55.7358 55.4884 55.834 55.3415 55.9009 55.1799C55.9679 55.0182 56.0023 54.845 56.0023 54.67V1.33C56.002 1.15504 55.9673 0.981846 55.9 0.820317C55.8328 0.658788 55.7344 0.512085 55.6105 0.388583C55.4865 0.265081 55.3395 0.167199 55.1777 0.100526C55.0159 0.0338536 54.8426 -0.000304639 54.6677 2.04696e-06ZM33.334 29.9273H26.6677V50.666H21.3337V29.9273H14.6673V25.333H33.334V29.9273ZM34.8273 49.4807V43.939C34.8273 43.939 37.856 46.221 41.489 46.221C45.122 46.221 44.982 43.8457 44.982 43.519C44.982 40.0727 34.6873 40.0727 34.6873 32.4333C34.6873 22.0453 49.6883 26.145 49.6883 26.145L49.5017 31.0823C49.5017 31.0823 46.9863 29.4047 44.1443 29.4047C41.3023 29.4047 40.278 30.758 40.278 32.2C40.278 35.9263 50.666 35.5553 50.666 43.0547C50.666 54.6047 34.8273 49.483 34.8273 49.483V49.4807Z" fill="url(#paint0_linear_4_44)"/>
</g>
</g>
</g>
<defs>
<linearGradient id="paint0_linear_4_44" x1="28.0012" y1="0" x2="28.0012" y2="56.0023" gradientUnits="userSpaceOnUse">
<stop stop-color="#43C4ED"/>
<stop offset="1" stop-color="#CA32F0"/>
</linearGradient>
<clipPath id="clip0_4_44">
<rect width="56" height="56" fill="white"/>
</clipPath>
</defs>
</svg>
