<svg width="61" height="75" viewBox="0 0 61 75" fill="none" xmlns="http://www.w3.org/2000/svg">
<path d="M50.166 65.3222L50.4682 67.2992L52.4066 67.0029L52.1486 65.059L50.166 65.3222ZM46.5744 65.9684L46.9446 67.9338L46.5744 65.9684ZM40.07 67.2541L39.6694 65.2946L39.6669 65.2951L40.07 67.2541ZM32.0763 68.9618L31.646 67.0086L32.0763 68.9618ZM23.637 70.9317L24.0731 72.8836L24.0951 72.8787L24.117 72.8733L23.637 70.9317ZM15.957 72.7857L15.4495 70.8511L15.444 70.8526L15.957 72.7857ZM10.4741 74.4008L8.49507 74.6895L8.84341 77.0774L11.1252 76.2919L10.4741 74.4008ZM8.45087 60.5313L6.67816 59.6053L6.37835 60.1792L6.47182 60.82L8.45087 60.5313ZM29.7872 19.6857L31.5599 20.6117L33.388 17.112L29.4849 17.7087L29.7872 19.6857ZM25.2901 20.7617L25.7814 22.7004L25.8123 22.6926L25.8429 22.6838L25.2901 20.7617ZM19.4132 22.34L18.868 20.4157L18.8604 20.4179L19.4132 22.34ZM14.4048 23.8826L14.8702 25.8277L14.9568 25.807L15.0413 25.7786L14.4048 23.8826ZM12.1562 24.4206L10.1572 24.4831L10.234 26.9369L12.6216 26.3657L12.1562 24.4206ZM11.6816 9.24603L11.2402 7.29533L9.63095 7.65941L9.68254 9.30857L11.6816 9.24603ZM50.0739 0.560288L52.0727 0.629309L52.1622 -1.96271L49.6326 -1.39041L50.0739 0.560288ZM49.6086 14.0333L51.3995 14.9238L51.5925 14.5356L51.6074 14.1024L49.6086 14.0333ZM29.3307 54.8142L27.5399 53.9237L25.8245 57.3735L29.6329 56.7912L29.3307 54.8142ZM34.3312 53.8555L33.9134 51.8996L33.9099 51.9004L34.3312 53.8555ZM40.916 52.4603L40.5046 50.5031L40.916 52.4603ZM48.2455 50.8542L50.2281 50.5911L49.9398 48.4192L47.8032 48.9038L48.2455 50.8542ZM49.8637 63.3451C49.254 63.4383 48.0217 63.6606 46.2042 64.0029L46.9446 67.9338C48.7771 67.5886 49.9392 67.3801 50.4682 67.2992L49.8637 63.3451ZM46.2042 64.0029C44.3661 64.3491 42.1873 64.7799 39.6694 65.2946L40.4706 69.2136C42.9752 68.7015 45.1327 68.2751 46.9446 67.9338L46.2042 64.0029ZM39.6669 65.2951C37.2084 65.801 34.5346 66.3722 31.646 67.0086L32.5065 70.9149C35.3802 70.2819 38.0356 69.7146 40.4731 69.2131L39.6669 65.2951ZM31.646 67.0086C28.7489 67.6468 25.9192 68.3073 23.157 68.9902L24.117 72.8733C26.8448 72.1989 29.6413 71.5461 32.5065 70.9149L31.646 67.0086ZM23.201 68.9799C20.426 69.5998 17.8418 70.2235 15.4495 70.8512L16.4646 74.7202C18.8029 74.1067 21.3388 73.4944 24.0731 72.8836L23.201 68.9799ZM15.444 70.8526C13.1215 71.4689 11.2416 72.0214 9.82309 72.5097L11.1252 76.2919C12.4129 75.8486 14.1883 75.3243 16.47 74.7188L15.444 70.8526ZM12.4532 74.1121L10.4299 60.2426L6.47182 60.82L8.49507 74.6895L12.4532 74.1121ZM10.2236 61.4573L31.5599 20.6117L28.0145 18.7597L6.67816 59.6053L10.2236 61.4573ZM29.4849 17.7087C28.2821 17.8926 26.6862 18.2792 24.7374 18.8396L25.8429 22.6838C27.7391 22.1385 29.1413 21.8077 30.0894 21.6628L29.4849 17.7087ZM24.7989 18.823C22.848 19.3173 20.8711 19.8483 18.868 20.4157L19.9583 24.2643C21.9268 23.7066 23.8679 23.1853 25.7814 22.7004L24.7989 18.823ZM18.8604 20.4179C16.9185 20.9764 15.2198 21.4993 13.7682 21.9866L15.0413 25.7786C16.4225 25.3149 18.0628 24.8094 19.9659 24.2621L18.8604 20.4179ZM13.9394 21.9375L11.6909 22.4755L12.6216 26.3657L14.8702 25.8277L13.9394 21.9375ZM14.1553 24.358L13.6806 9.1835L9.68254 9.30857L10.1572 24.4831L14.1553 24.358ZM12.1229 11.1967L50.5152 2.51099L49.6326 -1.39041L11.2402 7.29533L12.1229 11.1967ZM48.0751 0.491266L47.6098 13.9643L51.6074 14.1024L52.0727 0.629309L48.0751 0.491266ZM47.8178 13.1429L27.5399 53.9237L31.1215 55.7047L51.3995 14.9238L47.8178 13.1429ZM29.6329 56.7912C30.9554 56.589 32.6665 56.2601 34.7525 55.8106L33.9099 51.9004C31.8592 52.3423 30.2366 52.6525 29.0284 52.8372L29.6329 56.7912ZM34.7491 55.8113C36.8785 55.3564 39.0713 54.8919 41.3275 54.4176L40.5046 50.5031C38.2444 50.9783 36.0473 51.4438 33.9134 51.8996L34.7491 55.8113ZM41.3275 54.4176C43.5975 53.9403 46.0511 53.4027 48.6878 52.8047L47.8032 48.9038C45.1837 49.4978 42.7509 50.0309 40.5046 50.5031L41.3275 54.4176ZM46.2629 51.1174L48.1834 65.5853L52.1486 65.059L50.2281 50.5911L46.2629 51.1174Z" fill="url(#paint0_linear_7_453)"/>
<defs>
<linearGradient id="paint0_linear_7_453" x1="17.7588" y1="-11.8264" x2="33.1734" y2="89.0021" gradientUnits="userSpaceOnUse">
<stop stop-color="#43C4ED"/>
<stop offset="1" stop-color="#CA32F0"/>
</linearGradient>
</defs>
</svg>
