<svg width="39" height="39" viewBox="0 0 39 39" fill="none" xmlns="http://www.w3.org/2000/svg">
<g clip-path="url(#clip0_13_17)">
<path fill-rule="evenodd" clip-rule="evenodd" d="M20 7C13.37 7 8 12.37 8 19C8 24.31 11.435 28.795 16.205 30.385C16.805 30.49 17.03 30.13 17.03 29.815C17.03 29.53 17.015 28.585 17.015 27.58C14 28.135 13.22 26.845 12.98 26.17C12.845 25.825 12.26 24.76 11.75 24.475C11.33 24.25 10.73 23.695 11.735 23.68C12.68 23.665 13.355 24.55 13.58 24.91C14.66 26.725 16.385 26.215 17.075 25.9C17.18 25.12 17.495 24.595 17.84 24.295C15.17 23.995 12.38 22.96 12.38 18.37C12.38 17.065 12.845 15.985 13.61 15.145C13.49 14.845 13.07 13.615 13.73 11.965C13.73 11.965 14.735 11.65 17.03 13.195C17.99 12.925 19.01 12.79 20.03 12.79C21.05 12.79 22.07 12.925 23.03 13.195C25.325 11.635 26.33 11.965 26.33 11.965C26.99 13.615 26.57 14.845 26.45 15.145C27.215 15.985 27.68 17.05 27.68 18.37C27.68 22.975 24.875 23.995 22.205 24.295C22.64 24.67 23.015 25.39 23.015 26.515C23.015 28.12 23 29.41 23 29.815C23 30.13 23.225 30.505 23.825 30.385C26.2072 29.5807 28.2772 28.0497 29.7437 26.0074C31.2101 23.965 31.9993 21.5143 32 19C32 12.37 26.63 7 20 7Z" fill="#43C4ED"/>
</g>
<circle cx="19.5" cy="19.5" r="19" stroke="#43C4ED"/>
<defs>
<clipPath id="clip0_13_17">
<rect width="24" height="24" fill="white" transform="translate(8 7)"/>
</clipPath>
</defs>
</svg>
