<svg width="43" height="43" viewBox="0 0 43 43" fill="none" xmlns="http://www.w3.org/2000/svg">
<circle cx="21.1888" cy="21.1888" r="19" transform="rotate(-5.20547 21.1888 21.1888)" stroke="#CA32F0"/>
<g clip-path="url(#clip0_13_23)">
<path d="M21.6887 9.16879C15.3263 9.16879 10.1687 14.3264 10.1687 20.6888C10.1687 27.0512 15.3263 32.2088 21.6887 32.2088C28.0511 32.2088 33.2087 27.0512 33.2087 20.6888C33.2087 14.3264 28.0511 9.16879 21.6887 9.16879ZM18.8687 25.4636H16.5359V17.9564H18.8687V25.4636ZM17.6879 17.0348C16.9511 17.0348 16.4747 16.5128 16.4747 15.8672C16.4747 15.2084 16.9655 14.702 17.7179 14.702C18.4703 14.702 18.9311 15.2084 18.9455 15.8672C18.9455 16.5128 18.4703 17.0348 17.6879 17.0348ZM27.3887 25.4636H25.0559V21.3032C25.0559 20.3348 24.7175 19.6772 23.8739 19.6772C23.2295 19.6772 22.8467 20.1224 22.6775 20.5508C22.6151 20.7032 22.5995 20.9192 22.5995 21.134V25.4624H20.2655V20.3504C20.2655 19.4132 20.2355 18.6296 20.2043 17.9552H22.2311L22.3379 18.998H22.3847C22.6919 18.5084 23.4443 17.786 24.7031 17.786C26.2379 17.786 27.3887 18.8144 27.3887 21.0248V25.4636Z" fill="#CA32F0"/>
</g>
<defs>
<clipPath id="clip0_13_23">
<rect width="24" height="24" fill="white" transform="translate(9.68872 8.68878)"/>
</clipPath>
</defs>
</svg>
