<svg width="85" height="88" viewBox="0 0 85 88" fill="none" xmlns="http://www.w3.org/2000/svg">
<path d="M57.7041 74.16V76.16H59.665L59.7037 74.1995L57.7041 74.16ZM54.0561 74.256L54.1251 76.2548L54.1251 76.2548L54.0561 74.256ZM47.4321 74.544L47.3322 72.5465L47.3297 72.5466L47.4321 74.544ZM39.2721 75.024L39.142 73.0282L39.2721 75.024ZM30.6321 75.696L30.7682 77.6914L30.7907 77.6898L30.8132 77.6878L30.6321 75.696ZM22.7601 76.368L22.5508 74.379L22.5452 74.3796L22.7601 76.368ZM17.0961 77.136L15.0962 77.1223L15.0796 79.5354L17.4539 79.1037L17.0961 77.136ZM17.1921 63.12L15.5797 61.9367L15.1966 62.4588L15.1922 63.1063L17.1921 63.12ZM44.4561 25.968L46.0685 27.1513L48.4046 23.968H44.4561V25.968ZM39.8481 26.352L40.0408 28.3427L40.0725 28.3396L40.1041 28.3356L39.8481 26.352ZM33.8001 27.024L33.5521 25.0394L33.5442 25.0404L33.8001 27.024ZM28.6161 27.792L28.7822 29.7851L28.871 29.7777L28.9588 29.7624L28.6161 27.792ZM26.3121 27.984L24.3266 27.7437L24.0317 30.181L26.4782 29.9771L26.3121 27.984ZM28.1361 12.912L27.9947 10.917L26.3488 11.0337L26.1506 12.6717L28.1361 12.912ZM67.4001 10.128L69.3655 10.4983L69.8457 7.94957L67.2587 8.13301L67.4001 10.128ZM64.9041 23.376L66.5398 24.5269L66.7893 24.1723L66.8696 23.7463L64.9041 23.376ZM38.6961 60.624L37.0604 59.4731L34.8435 62.624H38.6961V60.624ZM43.7841 60.432L43.6667 58.4354L43.6631 58.4357L43.7841 60.432ZM50.5041 60.048L50.3932 58.0511L50.3932 58.0511L50.5041 60.048ZM57.9921 59.568L59.9917 59.6075L60.035 57.417L57.8496 57.5731L57.9921 59.568ZM57.7041 72.16C57.0873 72.16 55.8356 72.1934 53.9872 72.2572L54.1251 76.2548C55.9886 76.1906 57.1689 76.16 57.7041 76.16V72.16ZM53.9872 72.2572C52.1178 72.3216 49.899 72.4182 47.3322 72.5465L47.532 76.5415C50.0852 76.4138 52.2824 76.3184 54.1251 76.2548L53.9872 72.2572ZM47.3297 72.5466C44.823 72.6752 42.0936 72.8357 39.142 73.0282L39.4023 77.0198C42.3386 76.8283 45.0493 76.6688 47.5346 76.5414L47.3297 72.5466ZM39.142 73.0282C36.1817 73.2213 33.2847 73.4466 30.4511 73.7042L30.8132 77.6878C33.6115 77.4334 36.4745 77.2107 39.4023 77.0198L39.142 73.0282ZM30.4961 73.7006C27.6592 73.8941 25.0105 74.1201 22.5508 74.379L22.9695 78.357C25.3737 78.1039 27.973 77.8819 30.7682 77.6914L30.4961 73.7006ZM22.5452 74.3796C20.1562 74.6379 18.2144 74.8999 16.7384 75.1683L17.4539 79.1037C18.7939 78.8601 20.6281 78.6101 22.9751 78.3564L22.5452 74.3796ZM19.0961 77.1497L19.1921 63.1337L15.1922 63.1063L15.0962 77.1223L19.0961 77.1497ZM18.8045 64.3033L46.0685 27.1513L42.8437 24.7847L15.5797 61.9367L18.8045 64.3033ZM44.4561 23.968C43.2393 23.968 41.6033 24.1089 39.5922 24.3684L40.1041 28.3356C42.0609 28.0831 43.4969 27.968 44.4561 27.968V23.968ZM39.6555 24.3613C37.6523 24.5551 35.6179 24.7812 33.5521 25.0394L34.0482 29.0086C36.0784 28.7548 38.0759 28.5328 40.0408 28.3427L39.6555 24.3613ZM33.5442 25.0404C31.5402 25.299 29.782 25.5592 28.2734 25.8216L28.9588 29.7624C30.3942 29.5128 32.0921 29.261 34.0561 29.0076L33.5442 25.0404ZM28.45 25.7989L26.146 25.9909L26.4782 29.9771L28.7822 29.7851L28.45 25.7989ZM28.2976 28.2243L30.1216 13.1523L26.1506 12.6717L24.3266 27.7437L28.2976 28.2243ZM28.2776 14.907L67.5416 12.123L67.2587 8.13301L27.9947 10.917L28.2776 14.907ZM65.4347 9.7577L62.9387 23.0057L66.8696 23.7463L69.3655 10.4983L65.4347 9.7577ZM63.2684 22.2251L37.0604 59.4731L40.3318 61.7749L66.5398 24.5269L63.2684 22.2251ZM38.6961 62.624C40.0339 62.624 41.7751 62.5574 43.9051 62.4283L43.6631 58.4357C41.5691 58.5626 39.9183 58.624 38.6961 58.624V62.624ZM43.9016 62.4285C46.0753 62.3007 48.3131 62.1728 50.6151 62.0449L50.3932 58.0511C48.0871 58.1792 45.845 58.3073 43.6667 58.4354L43.9016 62.4285ZM50.6151 62.0449C52.9312 61.9162 55.4378 61.7555 58.1346 61.5629L57.8496 57.5731C55.1705 57.7645 52.6851 57.9238 50.3932 58.0511L50.6151 62.0449ZM55.9925 59.5285L55.7045 74.1205L59.7037 74.1995L59.9917 59.6075L55.9925 59.5285Z" fill="url(#paint0_linear_26_13)"/>
<defs>
<linearGradient id="paint0_linear_26_13" x1="37" y1="0" x2="37" y2="88" gradientUnits="userSpaceOnUse">
<stop stop-color="#43C4ED"/>
<stop offset="1" stop-color="#CA32F0"/>
</linearGradient>
</defs>
</svg>
